<?xml version="1.0" encoding="utf-8"?>
<!-- Generator: Adobe Illustrator 24.0.3, SVG Export Plug-In . SVG Version: 6.00 Build 0)  -->
<svg version="1.1" id="Imagen_SIMCO_xA0_Image_1_" xmlns="http://www.w3.org/2000/svg" xmlns:xlink="http://www.w3.org/1999/xlink"
	 x="0px" y="0px" viewBox="0 0 406.23 240.34" style="enable-background:new 0 0 406.23 240.34;" xml:space="preserve">
<style type="text/css">
	.st0{fill:#565656;}
	.st1{fill:#F7A336;}
	.st2{fill:#4DB3A5;}
	.st3{fill:#EA5C2E;}
	.st4{fill:#C8D53D;}
</style>
<path class="st0" d="M62.26,45.29c-2.31-1.87-4.61-3.26-6.92-4.16c-2.31-0.9-4.54-1.35-6.7-1.35c-2.74,0-4.97,0.65-6.7,1.94
	c-1.73,1.3-2.59,2.99-2.59,5.08c0,1.44,0.43,2.63,1.3,3.57c0.86,0.94,2,1.75,3.4,2.43c1.41,0.69,2.99,1.28,4.76,1.78
	c1.76,0.5,3.51,1.04,5.24,1.62c6.92,2.31,11.98,5.39,15.18,9.24c3.21,3.85,4.81,8.88,4.81,15.08c0,4.18-0.7,7.96-2.11,11.35
	c-1.4,3.39-3.46,6.29-6.16,8.7c-2.7,2.42-6.02,4.29-9.94,5.62c-3.93,1.33-8.38,2-13.35,2c-10.3,0-19.85-5.06-28.64-11.19l9.08-17.08
	c3.17,2.81,6.3,6.9,9.4,8.27c3.1,1.37,6.16,2.05,9.19,2.05c3.46,0,6.03-0.79,7.73-2.38c1.69-1.58,2.54-3.39,2.54-5.4
	c0-1.22-0.22-2.29-0.65-3.19c-0.43-0.9-1.15-1.73-2.16-2.49c-1.01-0.76-2.32-1.46-3.94-2.11s-3.58-1.37-5.89-2.16
	c-2.74-0.86-5.42-1.82-8.05-2.86c-2.63-1.04-4.97-2.43-7.02-4.16c-2.05-1.73-3.71-3.91-4.97-6.54c-1.26-2.63-1.89-5.96-1.89-10
	c0-4.03,0.67-7.69,2-10.97c1.33-3.28,3.2-6.09,5.62-8.43c2.41-2.34,5.37-4.16,8.86-5.46c3.49-1.3,7.4-1.95,11.73-1.95
	c4.03,0,8.25,0.56,12.64,1.68c4.39,1.12,8.61,2.76,12.64,4.92L62.26,45.29z"/>
<path class="st0" d="M109.51,24.43v81.49H88.33V24.43H109.51z"/>
<path class="st0" d="M121.91,105.91l13.83-81.49h20.97l16.32,43.44l16.21-43.44h20.97l13.83,81.49h-21.07l-7.02-46.9l-15.68,46.9
	h-14.16l-16.1-46.9l-7.02,46.9H121.91z"/>
<path class="st0" d="M295.12,51.66c-4.9-5.98-10.95-8.97-18.16-8.97c-3.17,0-6.11,0.58-8.81,1.73c-2.7,1.15-5.03,2.72-6.97,4.7
	c-1.95,1.98-3.48,4.34-4.59,7.08c-1.12,2.74-1.67,5.69-1.67,8.86c0,3.24,0.56,6.23,1.67,8.97c1.12,2.74,2.67,5.12,4.65,7.13
	c1.98,2.02,4.3,3.6,6.97,4.75c2.66,1.15,5.55,1.73,8.65,1.73c6.77,0,12.86-2.88,18.26-8.65v25.07l-2.16,0.76
	c-3.24,1.15-6.27,2-9.08,2.54c-2.81,0.54-5.58,0.81-8.32,0.81c-5.62,0-11.01-1.06-16.16-3.19c-5.15-2.12-9.69-5.11-13.62-8.97
	c-3.93-3.85-7.08-8.43-9.46-13.72c-2.38-5.3-3.57-11.08-3.57-17.35s1.17-12.01,3.51-17.24c2.34-5.22,5.47-9.73,9.4-13.51
	c3.93-3.78,8.48-6.74,13.67-8.86c5.19-2.12,10.63-3.19,16.32-3.19c3.24,0,6.43,0.34,9.56,1.03c3.13,0.69,6.43,1.75,9.89,3.19V51.66z
	"/>
<path class="st0" d="M306.03,65.17c0-6.05,1.08-11.69,3.24-16.91c2.16-5.22,5.15-9.78,8.99-13.67c3.83-3.89,8.41-6.93,13.74-9.13
	c5.33-2.2,11.2-3.3,17.61-3.3c6.34,0,12.19,1.1,17.55,3.3c5.36,2.2,9.98,5.24,13.84,9.13c3.87,3.89,6.88,8.45,9.04,13.67
	c2.16,5.22,3.24,10.86,3.24,16.91c0,6.05-1.08,11.69-3.24,16.91c-2.16,5.22-5.17,9.78-9.04,13.67c-3.87,3.89-8.48,6.94-13.84,9.13
	c-5.36,2.2-11.22,3.3-17.55,3.3c-6.41,0-12.28-1.1-17.61-3.3c-5.33-2.2-9.91-5.24-13.74-9.13c-3.83-3.89-6.83-8.45-8.99-13.67
	C307.11,76.86,306.03,71.22,306.03,65.17z M327.45,65.17c0,3.24,0.59,6.23,1.78,8.97c1.18,2.74,2.79,5.12,4.81,7.13
	c2.02,2.02,4.37,3.58,7.05,4.7c2.68,1.12,5.52,1.67,8.52,1.67c2.99,0,5.83-0.56,8.52-1.67c2.68-1.12,5.05-2.68,7.1-4.7
	c2.05-2.02,3.67-4.39,4.86-7.13c1.18-2.74,1.78-5.73,1.78-8.97c0-3.24-0.59-6.23-1.78-8.97c-1.18-2.74-2.8-5.11-4.86-7.13
	c-2.06-2.02-4.42-3.58-7.1-4.7c-2.68-1.12-5.52-1.68-8.52-1.68c-3,0-5.83,0.56-8.52,1.68c-2.68,1.12-5.03,2.69-7.05,4.7
	c-2.02,2.02-3.62,4.4-4.81,7.13C328.04,58.94,327.45,61.93,327.45,65.17z"/>
<rect x="13.84" y="125.16" class="st1" width="36.03" height="18.25"/>
<rect x="61.59" y="125.16" class="st2" width="36.03" height="18.25"/>
<rect x="109.34" y="125.5" class="st3" width="36.03" height="18.25"/>
<rect x="157.09" y="125.5" class="st4" width="36.03" height="18.25"/>
<rect x="204.83" y="125.5" class="st1" width="36.03" height="18.25"/>
<rect x="300.33" y="125.5" class="st3" width="36.03" height="18.25"/>
<rect x="252.58" y="125.5" class="st2" width="36.03" height="18.25"/>
<rect x="348.08" y="125.5" class="st4" width="36.03" height="18.25"/>
<g>
	<path class="st0" d="M23.47,176.24l2.69-0.61c1.08,3.24,3.42,4.86,7.03,4.86c1.88,0,3.3-0.4,4.25-1.2s1.43-1.87,1.43-3.21
		c0-1.01-0.36-1.83-1.09-2.45s-1.57-1.04-2.52-1.28l-4.76-1.17c-1.23-0.31-2.24-0.7-3.02-1.14c-0.78-0.45-1.45-1.14-2-2.07
		c-0.55-0.93-0.82-2-0.82-3.2c0-1.99,0.75-3.58,2.25-4.76s3.42-1.77,5.77-1.77c4.32,0,7.17,1.96,8.53,5.88l-2.7,0.8
		c-0.31-1.4-1.05-2.45-2.21-3.17c-1.16-0.71-2.4-1.07-3.71-1.07c-1.3,0-2.46,0.34-3.48,1.03c-1.02,0.69-1.53,1.66-1.53,2.92
		c0,1.76,1.29,2.95,3.87,3.57l4.45,1.04c4.07,0.98,6.1,3.17,6.1,6.57c0,2.06-0.76,3.77-2.29,5.14s-3.68,2.05-6.46,2.05
		C28.3,183.03,25.05,180.77,23.47,176.24z"/>
	<path class="st0" d="M48.99,158.74v3.05h-2.95v-3.05H48.99z M48.9,164.93v17.61h-2.74v-17.61H48.9z"/>
	<path class="st0" d="M51.99,177.97l2.62-0.54c0.58,2.22,2.42,3.33,5.51,3.33c1.14,0,2.1-0.25,2.89-0.77
		c0.79-0.51,1.19-1.23,1.19-2.16c0-1.38-1.01-2.26-3.02-2.63l-3.71-0.7c-1.45-0.28-2.61-0.83-3.47-1.64
		c-0.86-0.81-1.29-1.89-1.29-3.23c0-1.48,0.59-2.71,1.76-3.71c1.17-0.99,2.75-1.49,4.74-1.49c3.82,0,6.18,1.49,7.08,4.48l-2.51,0.54
		c-0.72-1.84-2.2-2.75-4.45-2.75c-1.12,0-2.03,0.23-2.75,0.69s-1.07,1.1-1.07,1.92c0,1.3,0.91,2.12,2.74,2.46l3.43,0.62
		c3.59,0.65,5.39,2.39,5.39,5.22c0,1.62-0.67,2.93-2,3.92c-1.34,1-3.11,1.49-5.33,1.49C55.56,183.03,52.98,181.34,51.99,177.97z"/>
	<path class="st0" d="M78.91,180.67v2.16c-0.96,0.13-1.8,0.19-2.51,0.19c-3.41,0-5.11-1.78-5.11-5.34v-10.61h-3.12v-2.14h3.12
		l0.12-4.43l2.55-0.24v4.67h3.94v2.14h-3.94v11.07c0,1.82,0.94,2.72,2.82,2.72C77.41,180.86,78.12,180.8,78.91,180.67z"/>
	<path class="st0" d="M92.92,177.29l2.55,0.52c-0.47,1.5-1.37,2.75-2.72,3.73c-1.35,0.99-2.93,1.48-4.76,1.48
		c-2.41,0-4.35-0.85-5.84-2.54s-2.23-3.91-2.23-6.66c0-2.8,0.77-5.07,2.32-6.8c1.55-1.73,3.49-2.59,5.82-2.59
		c2.3,0,4.15,0.8,5.55,2.39c1.4,1.59,2.12,3.97,2.15,7.15h-12.8c0,2.66,0.56,4.46,1.67,5.39s2.3,1.39,3.54,1.39
		C90.43,180.76,92.01,179.6,92.92,177.29z M92.77,171.94c-0.02-0.99-0.19-1.87-0.49-2.63c-0.3-0.77-0.81-1.42-1.53-1.96
		c-0.72-0.54-1.59-0.81-2.6-0.81c-1.36,0-2.51,0.49-3.46,1.46c-0.95,0.98-1.48,2.29-1.6,3.94H92.77z"/>
	<path class="st0" d="M123.47,182.54h-2.67v-10.95c0-1.13-0.08-1.97-0.24-2.54c-0.16-0.56-0.54-1.08-1.14-1.55
		c-0.6-0.47-1.28-0.71-2.04-0.71c-1.05,0-2.05,0.48-3.02,1.44c-0.97,0.96-1.46,2.42-1.46,4.38v9.92h-2.65v-11.59
		c0-1.55-0.37-2.64-1.11-3.28c-0.74-0.64-1.51-0.96-2.33-0.96c-1.16,0-2.17,0.5-3.03,1.5c-0.86,1-1.29,2.27-1.29,3.8v10.53h-2.62
		v-17.61h2.35v3.38c1.31-2.58,3.12-3.87,5.42-3.87c1.27,0,2.34,0.41,3.23,1.24c0.88,0.83,1.45,1.82,1.71,2.98
		c1.21-2.81,3.06-4.22,5.56-4.22c1.2,0,2.25,0.34,3.15,1.03s1.49,1.47,1.76,2.36c0.27,0.89,0.41,2.14,0.41,3.76V182.54z"/>
	<path class="st0" d="M142.72,182.54h-2.7c-0.1-0.56-0.21-1.62-0.31-3.17c-1.21,2.44-3.27,3.66-6.17,3.66
		c-1.98,0-3.49-0.52-4.55-1.57c-1.06-1.05-1.59-2.31-1.59-3.77c0-1.78,0.76-3.25,2.27-4.39c1.51-1.15,4.08-1.72,7.71-1.72
		c0.49,0,1.27,0.02,2.34,0.07c0-1.39-0.11-2.4-0.32-3.03c-0.22-0.62-0.67-1.12-1.37-1.49s-1.62-0.56-2.75-0.56
		c-2.78,0-4.39,1.06-4.85,3.17l-2.53-0.44c0.62-3.24,3.21-4.86,7.78-4.86c2.43,0,4.15,0.54,5.17,1.61s1.53,2.94,1.53,5.59v7.48
		C142.35,180.36,142.47,181.5,142.72,182.54z M139.7,173.73c-1.12-0.07-1.96-0.1-2.55-0.1c-2.16,0-3.84,0.36-5.04,1.07
		s-1.8,1.75-1.8,3.11c0,0.86,0.32,1.6,0.97,2.2s1.58,0.91,2.8,0.91c1.65,0,3.01-0.6,4.07-1.8c1.06-1.2,1.6-2.61,1.6-4.23
		C139.75,174.56,139.74,174.18,139.7,173.73z"/>
	<path class="st0" d="M170.51,158.74v23.8h-2.48v-3.02c-1.23,2.34-3.09,3.5-5.57,3.5c-2.06,0-3.75-0.86-5.08-2.59
		c-1.33-1.73-1.99-3.91-1.99-6.55c0-2.7,0.66-4.95,1.97-6.74c1.31-1.8,3.06-2.7,5.23-2.7c2.12,0,3.84,0.96,5.18,2.89v-8.59H170.51z
		 M167.77,171.73c0-1.55-0.47-2.78-1.41-3.71s-2.04-1.4-3.3-1.4c-1.36,0-2.48,0.6-3.36,1.81c-0.88,1.21-1.32,2.91-1.32,5.09
		c0,2.36,0.4,4.16,1.21,5.39c0.81,1.23,1.91,1.85,3.32,1.85c1.28,0,2.41-0.53,3.38-1.6c0.98-1.07,1.46-2.33,1.46-3.77V171.73z"/>
	<path class="st0" d="M187.61,177.29l2.55,0.52c-0.47,1.5-1.37,2.75-2.72,3.73c-1.35,0.99-2.93,1.48-4.76,1.48
		c-2.41,0-4.35-0.85-5.84-2.54s-2.23-3.91-2.23-6.66c0-2.8,0.77-5.07,2.32-6.8c1.55-1.73,3.49-2.59,5.82-2.59
		c2.3,0,4.15,0.8,5.55,2.39c1.4,1.59,2.12,3.97,2.15,7.15h-12.8c0,2.66,0.56,4.46,1.67,5.39s2.3,1.39,3.54,1.39
		C185.11,180.76,186.69,179.6,187.61,177.29z M187.45,171.94c-0.02-0.99-0.19-1.87-0.49-2.63c-0.3-0.77-0.81-1.42-1.53-1.96
		c-0.72-0.54-1.59-0.81-2.6-0.81c-1.36,0-2.51,0.49-3.46,1.46c-0.95,0.98-1.48,2.29-1.6,3.94H187.45z"/>
	<path class="st0" d="M206.72,182.54h-2.98v-23.8h2.98V182.54z"/>
	<path class="st0" d="M226.3,182.54h-2.56v-11.32c0-1.63-0.35-2.77-1.06-3.43c-0.71-0.66-1.57-0.99-2.58-0.99
		c-1.39,0-2.57,0.56-3.51,1.67c-0.95,1.12-1.42,2.59-1.42,4.41v9.66h-2.74v-17.61h2.54v3.24c1.43-2.49,3.28-3.73,5.56-3.73
		c1.31,0,2.43,0.34,3.36,1.02s1.56,1.44,1.9,2.29s0.51,2.38,0.51,4.6V182.54z"/>
	<path class="st0" d="M239.08,164.93v2.14h-4.18v15.46h-2.74v-15.46h-3v-2.14h3c0.05-2.83,0.59-4.64,1.63-5.46s2.31-1.22,3.81-1.22
		c0.73,0,1.57,0.08,2.51,0.24v2.18c-0.59-0.15-1.16-0.23-1.69-0.23c-1.2,0-2.08,0.26-2.66,0.79c-0.58,0.53-0.86,1.52-0.86,2.97v0.71
		H239.08z"/>
	<path class="st0" d="M247.97,183.03c-2.42,0-4.3-0.9-5.66-2.69c-1.35-1.79-2.03-4.01-2.03-6.67c0-2.8,0.76-5.04,2.28-6.72
		c1.52-1.67,3.42-2.51,5.68-2.51c2.43,0,4.34,0.88,5.75,2.64c1.4,1.76,2.1,3.96,2.1,6.61c0,2.75-0.76,4.99-2.27,6.73
		C252.32,182.16,250.36,183.03,247.97,183.03z M248.18,180.76c1.39,0,2.56-0.58,3.5-1.73c0.94-1.15,1.41-2.94,1.41-5.37
		c0-2.44-0.49-4.21-1.48-5.31c-0.99-1.1-2.14-1.65-3.47-1.65c-1.36,0-2.51,0.55-3.45,1.67c-0.94,1.11-1.41,2.87-1.41,5.27
		c0,2.55,0.47,4.37,1.41,5.47S246.79,180.76,248.18,180.76z"/>
	<path class="st0" d="M262.94,182.54h-2.74v-17.61h2.41v4.11c0.85-1.94,1.7-3.2,2.55-3.77s1.73-0.86,2.62-0.86
		c0.28,0,0.64,0.02,1.08,0.07v2.62h-0.56c-1.51,0-2.77,0.56-3.77,1.69c-1,1.13-1.53,2.61-1.6,4.45V182.54z"/>
	<path class="st0" d="M295.56,182.54h-2.67v-10.95c0-1.13-0.08-1.97-0.24-2.54c-0.16-0.56-0.54-1.08-1.14-1.55s-1.28-0.71-2.04-0.71
		c-1.05,0-2.05,0.48-3.02,1.44c-0.97,0.96-1.46,2.42-1.46,4.38v9.92h-2.65v-11.59c0-1.55-0.37-2.64-1.11-3.28
		c-0.74-0.64-1.51-0.96-2.33-0.96c-1.16,0-2.17,0.5-3.03,1.5s-1.29,2.27-1.29,3.8v10.53h-2.62v-17.61h2.35v3.38
		c1.31-2.58,3.12-3.87,5.42-3.87c1.27,0,2.34,0.41,3.23,1.24c0.88,0.83,1.45,1.82,1.71,2.98c1.21-2.81,3.06-4.22,5.56-4.22
		c1.2,0,2.25,0.34,3.15,1.03s1.49,1.47,1.76,2.36c0.27,0.89,0.41,2.14,0.41,3.76V182.54z"/>
	<path class="st0" d="M314.81,182.54h-2.7c-0.1-0.56-0.21-1.62-0.31-3.17c-1.21,2.44-3.27,3.66-6.17,3.66
		c-1.98,0-3.49-0.52-4.55-1.57c-1.06-1.05-1.59-2.31-1.59-3.77c0-1.78,0.76-3.25,2.27-4.39s4.08-1.72,7.71-1.72
		c0.49,0,1.27,0.02,2.34,0.07c0-1.39-0.11-2.4-0.32-3.03c-0.22-0.62-0.67-1.12-1.37-1.49c-0.7-0.37-1.62-0.56-2.75-0.56
		c-2.78,0-4.39,1.06-4.85,3.17l-2.53-0.44c0.62-3.24,3.21-4.86,7.78-4.86c2.43,0,4.15,0.54,5.17,1.61c1.02,1.08,1.53,2.94,1.53,5.59
		v7.48C314.45,180.36,314.57,181.5,314.81,182.54z M311.8,173.73c-1.12-0.07-1.96-0.1-2.54-0.1c-2.16,0-3.84,0.36-5.04,1.07
		s-1.8,1.75-1.8,3.11c0,0.86,0.32,1.6,0.97,2.2c0.65,0.61,1.58,0.91,2.8,0.91c1.65,0,3.01-0.6,4.07-1.8c1.06-1.2,1.6-2.61,1.6-4.23
		C311.85,174.56,311.83,174.18,311.8,173.73z"/>
	<path class="st0" d="M330.33,176.37l2.48,0.44c-0.35,1.95-1.12,3.47-2.32,4.57c-1.2,1.1-2.69,1.65-4.48,1.65
		c-2.43,0-4.28-0.9-5.55-2.69c-1.27-1.79-1.91-3.98-1.91-6.56c0-2.68,0.67-4.9,2.01-6.67c1.34-1.77,3.17-2.66,5.48-2.66
		c1.92,0,3.46,0.57,4.61,1.72c1.16,1.15,1.88,2.62,2.15,4.44l-2.48,0.47c-0.46-2.91-1.87-4.36-4.21-4.36
		c-1.51,0-2.67,0.64-3.48,1.93c-0.81,1.29-1.22,2.95-1.22,5c0,2.25,0.4,4.01,1.21,5.26c0.81,1.25,1.94,1.87,3.4,1.87
		C328.29,180.76,329.73,179.29,330.33,176.37z"/>
	<path class="st0" d="M339.38,158.74v3.05h-2.95v-3.05H339.38z M339.29,164.93v17.61h-2.74v-17.61H339.29z"/>
	<path class="st0" d="M351.06,183.03c-2.42,0-4.3-0.9-5.66-2.69c-1.35-1.79-2.03-4.01-2.03-6.67c0-2.8,0.76-5.04,2.28-6.72
		c1.52-1.67,3.42-2.51,5.68-2.51c2.43,0,4.34,0.88,5.75,2.64c1.4,1.76,2.1,3.96,2.1,6.61c0,2.75-0.76,4.99-2.27,6.73
		C355.41,182.16,353.45,183.03,351.06,183.03z M351.27,180.76c1.39,0,2.56-0.58,3.5-1.73c0.94-1.15,1.41-2.94,1.41-5.37
		c0-2.44-0.49-4.21-1.48-5.31c-0.99-1.1-2.14-1.65-3.47-1.65c-1.36,0-2.51,0.55-3.45,1.67c-0.94,1.11-1.41,2.87-1.41,5.27
		c0,2.55,0.47,4.37,1.41,5.47S349.88,180.76,351.27,180.76z M356.43,158.9l-7.22,3.29l-0.75-1.41l6.91-3.98L356.43,158.9z"/>
	<path class="st0" d="M377.18,182.54h-2.56v-11.32c0-1.63-0.35-2.77-1.06-3.43c-0.71-0.66-1.57-0.99-2.58-0.99
		c-1.39,0-2.57,0.56-3.51,1.67c-0.95,1.12-1.42,2.59-1.42,4.41v9.66h-2.74v-17.61h2.54v3.24c1.43-2.49,3.28-3.73,5.56-3.73
		c1.31,0,2.43,0.34,3.36,1.02s1.56,1.44,1.9,2.29s0.51,2.38,0.51,4.6V182.54z"/>
	<path class="st0" d="M29.45,195.41v23.8h-2.48v-3.02c-1.23,2.34-3.09,3.5-5.57,3.5c-2.06,0-3.75-0.86-5.08-2.59
		c-1.33-1.73-1.99-3.91-1.99-6.55c0-2.7,0.66-4.95,1.97-6.74c1.31-1.8,3.06-2.7,5.23-2.7c2.12,0,3.84,0.96,5.18,2.89v-8.59H29.45z
		 M26.71,208.4c0-1.55-0.47-2.78-1.41-3.71s-2.04-1.4-3.3-1.4c-1.36,0-2.48,0.6-3.36,1.81c-0.88,1.21-1.32,2.91-1.32,5.09
		c0,2.36,0.4,4.16,1.21,5.39c0.81,1.23,1.91,1.85,3.32,1.85c1.28,0,2.41-0.53,3.38-1.6c0.98-1.07,1.46-2.33,1.46-3.77V208.4z"/>
	<path class="st0" d="M46.91,213.96l2.55,0.52c-0.47,1.5-1.37,2.75-2.72,3.73c-1.35,0.99-2.93,1.48-4.76,1.48
		c-2.41,0-4.35-0.85-5.84-2.54s-2.23-3.91-2.23-6.66c0-2.8,0.77-5.07,2.32-6.8c1.55-1.73,3.49-2.59,5.82-2.59
		c2.3,0,4.15,0.8,5.55,2.39c1.4,1.59,2.12,3.97,2.15,7.15h-12.8c0,2.66,0.56,4.46,1.67,5.39s2.3,1.39,3.54,1.39
		C44.41,217.43,45.99,216.27,46.91,213.96z M46.75,208.61c-0.02-0.99-0.19-1.87-0.49-2.63c-0.3-0.77-0.81-1.42-1.53-1.96
		c-0.72-0.54-1.59-0.81-2.6-0.81c-1.36,0-2.51,0.49-3.46,1.46c-0.95,0.98-1.48,2.29-1.6,3.94H46.75z"/>
	<path class="st0" d="M86.73,219.21h-2.89v-20.78l-7.73,20.78h-2.02l-7.81-20.78v20.78h-2.53v-23.8h4.41l7.19,19.03l7.02-19.03h4.36
		V219.21z"/>
	<path class="st0" d="M106.65,219.21h-2.48v-3.37c-1.25,2.57-3.12,3.85-5.61,3.85c-1.8,0-3.21-0.59-4.24-1.78
		c-1.03-1.19-1.54-2.87-1.54-5.06V201.6h2.74v11.25c0,1.74,0.36,2.94,1.09,3.6c0.73,0.66,1.53,0.99,2.4,0.99
		c0.88,0,1.68-0.25,2.4-0.75c0.71-0.5,1.31-1.21,1.79-2.14c0.48-0.92,0.71-1.93,0.71-3.02v-9.92h2.74V219.21z"/>
	<path class="st0" d="M110.11,214.64l2.62-0.54c0.58,2.22,2.42,3.33,5.51,3.33c1.14,0,2.1-0.25,2.89-0.77
		c0.79-0.51,1.19-1.23,1.19-2.16c0-1.38-1.01-2.26-3.02-2.63l-3.71-0.7c-1.45-0.28-2.61-0.83-3.47-1.64
		c-0.86-0.81-1.29-1.89-1.29-3.23c0-1.48,0.59-2.71,1.76-3.71c1.17-0.99,2.75-1.49,4.74-1.49c3.82,0,6.18,1.49,7.08,4.48l-2.51,0.54
		c-0.72-1.84-2.2-2.75-4.45-2.75c-1.12,0-2.03,0.23-2.75,0.69s-1.07,1.1-1.07,1.92c0,1.3,0.91,2.12,2.74,2.46l3.43,0.62
		c3.59,0.65,5.39,2.39,5.39,5.22c0,1.62-0.67,2.93-2,3.92c-1.34,1-3.11,1.49-5.33,1.49C113.68,219.7,111.1,218.01,110.11,214.64z"/>
	<path class="st0" d="M141.03,213.96l2.55,0.52c-0.47,1.5-1.37,2.75-2.72,3.73c-1.35,0.99-2.93,1.48-4.76,1.48
		c-2.41,0-4.35-0.85-5.84-2.54s-2.23-3.91-2.23-6.66c0-2.8,0.77-5.07,2.32-6.8c1.55-1.73,3.49-2.59,5.82-2.59
		c2.3,0,4.15,0.8,5.55,2.39c1.4,1.59,2.12,3.97,2.15,7.15h-12.8c0,2.66,0.56,4.46,1.67,5.39s2.3,1.39,3.54,1.39
		C138.53,217.43,140.11,216.27,141.03,213.96z M140.87,208.61c-0.02-0.99-0.19-1.87-0.49-2.63c-0.3-0.77-0.81-1.42-1.53-1.96
		c-0.72-0.54-1.59-0.81-2.6-0.81c-1.36,0-2.51,0.49-3.46,1.46c-0.95,0.98-1.48,2.29-1.6,3.94H140.87z"/>
	<path class="st0" d="M154.65,219.7c-2.42,0-4.3-0.9-5.66-2.69c-1.35-1.79-2.03-4.01-2.03-6.67c0-2.8,0.76-5.04,2.28-6.72
		c1.52-1.67,3.42-2.51,5.68-2.51c2.43,0,4.34,0.88,5.74,2.64c1.4,1.76,2.1,3.96,2.1,6.61c0,2.75-0.76,4.99-2.27,6.73
		C159,218.83,157.05,219.7,154.65,219.7z M154.86,217.43c1.39,0,2.56-0.58,3.5-1.73c0.94-1.15,1.41-2.94,1.41-5.37
		c0-2.44-0.49-4.21-1.48-5.31c-0.99-1.1-2.14-1.65-3.47-1.65c-1.36,0-2.51,0.55-3.45,1.67c-0.94,1.11-1.41,2.87-1.41,5.27
		c0,2.55,0.47,4.37,1.41,5.47C152.32,216.88,153.48,217.43,154.86,217.43z"/>
	<path class="st0" d="M164.88,214.64l2.62-0.54c0.58,2.22,2.42,3.33,5.51,3.33c1.14,0,2.1-0.25,2.89-0.77
		c0.79-0.51,1.19-1.23,1.19-2.16c0-1.38-1.01-2.26-3.02-2.63l-3.71-0.7c-1.45-0.28-2.61-0.83-3.47-1.64
		c-0.86-0.81-1.29-1.89-1.29-3.23c0-1.48,0.59-2.71,1.76-3.71c1.17-0.99,2.75-1.49,4.74-1.49c3.82,0,6.18,1.49,7.08,4.48l-2.51,0.54
		c-0.72-1.84-2.2-2.75-4.45-2.75c-1.12,0-2.03,0.23-2.75,0.69s-1.07,1.1-1.07,1.92c0,1.3,0.91,2.12,2.74,2.46l3.43,0.62
		c3.59,0.65,5.39,2.39,5.39,5.22c0,1.62-0.67,2.93-2,3.92c-1.34,1-3.11,1.49-5.33,1.49C168.45,219.7,165.87,218.01,164.88,214.64z"
		/>
	<path class="st0" d="M207.96,211.21l2.72,0.61c-1.3,5.25-4.24,7.88-8.82,7.88c-3.01,0-5.37-1.22-7.09-3.65
		c-1.71-2.43-2.57-5.42-2.57-8.97c0-3.66,0.9-6.61,2.69-8.83c1.79-2.22,4.19-3.33,7.2-3.33c4.46,0,7.33,2.55,8.6,7.65l-2.81,0.56
		c-1.02-3.79-2.96-5.68-5.81-5.68c-2.1,0-3.73,0.88-4.89,2.64c-1.16,1.76-1.73,4.23-1.73,7.42c0,2.92,0.59,5.26,1.78,7.02
		c1.19,1.76,2.75,2.64,4.71,2.64C204.96,217.17,206.97,215.18,207.96,211.21z"/>
	<path class="st0" d="M220.8,219.7c-2.42,0-4.3-0.9-5.66-2.69c-1.35-1.79-2.03-4.01-2.03-6.67c0-2.8,0.76-5.04,2.28-6.72
		c1.52-1.67,3.42-2.51,5.68-2.51c2.43,0,4.34,0.88,5.75,2.64c1.4,1.76,2.1,3.96,2.1,6.61c0,2.75-0.76,4.99-2.27,6.73
		C225.14,218.83,223.19,219.7,220.8,219.7z M221.01,217.43c1.39,0,2.56-0.58,3.5-1.73c0.94-1.15,1.41-2.94,1.41-5.37
		c0-2.44-0.49-4.21-1.48-5.31c-0.99-1.1-2.14-1.65-3.47-1.65c-1.36,0-2.51,0.55-3.45,1.67c-0.94,1.11-1.41,2.87-1.41,5.27
		c0,2.55,0.47,4.37,1.41,5.47S219.62,217.43,221.01,217.43z"/>
	<path class="st0" d="M236.13,219.21h-2.74v-23.8h2.74V219.21z"/>
	<path class="st0" d="M248.27,219.7c-2.42,0-4.3-0.9-5.66-2.69c-1.35-1.79-2.03-4.01-2.03-6.67c0-2.8,0.76-5.04,2.28-6.72
		c1.52-1.67,3.42-2.51,5.68-2.51c2.43,0,4.34,0.88,5.75,2.64c1.4,1.76,2.1,3.96,2.1,6.61c0,2.75-0.76,4.99-2.27,6.73
		C252.62,218.83,250.67,219.7,248.27,219.7z M248.48,217.43c1.39,0,2.56-0.58,3.5-1.73c0.94-1.15,1.41-2.94,1.41-5.37
		c0-2.44-0.49-4.21-1.48-5.31c-0.99-1.1-2.14-1.65-3.47-1.65c-1.36,0-2.51,0.55-3.45,1.67c-0.94,1.11-1.41,2.87-1.41,5.27
		c0,2.55,0.47,4.37,1.41,5.47S247.1,217.43,248.48,217.43z"/>
	<path class="st0" d="M284.46,219.21h-2.67v-10.95c0-1.13-0.08-1.97-0.24-2.54c-0.16-0.56-0.54-1.08-1.14-1.55s-1.28-0.71-2.04-0.71
		c-1.05,0-2.05,0.48-3.02,1.44c-0.97,0.96-1.46,2.42-1.46,4.38v9.92h-2.65v-11.59c0-1.55-0.37-2.64-1.11-3.28
		c-0.74-0.64-1.51-0.96-2.33-0.96c-1.16,0-2.17,0.5-3.03,1.5s-1.29,2.27-1.29,3.8v10.53h-2.62V201.6h2.35v3.38
		c1.31-2.58,3.12-3.87,5.42-3.87c1.27,0,2.34,0.41,3.23,1.24c0.88,0.83,1.45,1.82,1.71,2.98c1.21-2.81,3.06-4.22,5.56-4.22
		c1.2,0,2.25,0.34,3.15,1.03s1.49,1.47,1.76,2.36c0.27,0.89,0.41,2.14,0.41,3.76V219.21z"/>
	<path class="st0" d="M291.61,219.21h-1.33v-23.8h2.74v9.12c1.25-2.28,2.99-3.42,5.2-3.42c2.02,0,3.72,0.8,5.08,2.39
		c1.37,1.59,2.05,3.91,2.05,6.95c0,2.62-0.67,4.81-2.01,6.59c-1.34,1.77-3.09,2.66-5.24,2.66c-2.39,0-4.23-1.13-5.51-3.4
		L291.61,219.21z M293.03,212.3c0.13,1.81,0.68,3.12,1.67,3.94c0.98,0.82,2.02,1.22,3.12,1.22c1.4,0,2.52-0.61,3.38-1.82
		c0.86-1.21,1.28-2.87,1.28-4.98c0-2.27-0.41-4.05-1.24-5.35s-1.97-1.95-3.44-1.95c-1.15,0-2.19,0.46-3.12,1.39
		s-1.48,2.12-1.65,3.58V212.3z"/>
	<path class="st0" d="M312.65,195.41v3.05h-2.95v-3.05H312.65z M312.56,201.6v17.61h-2.74V201.6H312.56z"/>
	<path class="st0" d="M332.15,219.21h-2.7c-0.1-0.56-0.21-1.62-0.31-3.17c-1.21,2.44-3.27,3.66-6.17,3.66
		c-1.98,0-3.49-0.52-4.55-1.57c-1.06-1.05-1.59-2.31-1.59-3.77c0-1.78,0.76-3.25,2.27-4.39s4.08-1.72,7.71-1.72
		c0.49,0,1.27,0.02,2.34,0.07c0-1.39-0.11-2.4-0.32-3.03c-0.22-0.62-0.67-1.12-1.37-1.49c-0.7-0.37-1.62-0.56-2.75-0.56
		c-2.78,0-4.39,1.06-4.85,3.17l-2.53-0.44c0.62-3.24,3.21-4.86,7.78-4.86c2.43,0,4.15,0.54,5.17,1.61c1.02,1.08,1.53,2.94,1.53,5.59
		v7.48C331.78,217.04,331.9,218.17,332.15,219.21z M329.13,210.4c-1.12-0.07-1.96-0.1-2.54-0.1c-2.16,0-3.84,0.36-5.04,1.07
		s-1.8,1.75-1.8,3.11c0,0.86,0.32,1.6,0.97,2.2c0.65,0.61,1.58,0.91,2.8,0.91c1.65,0,3.01-0.6,4.07-1.8c1.06-1.2,1.6-2.61,1.6-4.23
		C329.19,211.23,329.17,210.85,329.13,210.4z"/>
	<path class="st0" d="M351.49,219.21h-2.56v-11.32c0-1.63-0.35-2.77-1.06-3.43c-0.71-0.66-1.57-0.99-2.58-0.99
		c-1.39,0-2.57,0.56-3.51,1.67c-0.95,1.12-1.42,2.59-1.42,4.41v9.66h-2.74V201.6h2.54v3.24c1.43-2.49,3.28-3.73,5.56-3.73
		c1.31,0,2.43,0.34,3.36,1.02s1.56,1.44,1.9,2.29s0.51,2.38,0.51,4.6V219.21z"/>
	<path class="st0" d="M363.64,219.7c-2.42,0-4.3-0.9-5.66-2.69c-1.35-1.79-2.03-4.01-2.03-6.67c0-2.8,0.76-5.04,2.28-6.72
		c1.52-1.67,3.42-2.51,5.68-2.51c2.43,0,4.34,0.88,5.75,2.64c1.4,1.76,2.1,3.96,2.1,6.61c0,2.75-0.76,4.99-2.27,6.73
		C367.98,218.83,366.03,219.7,363.64,219.7z M363.84,217.43c1.39,0,2.56-0.58,3.5-1.73c0.94-1.15,1.41-2.94,1.41-5.37
		c0-2.44-0.49-4.21-1.48-5.31c-0.99-1.1-2.14-1.65-3.47-1.65c-1.36,0-2.51,0.55-3.45,1.67c-0.94,1.11-1.41,2.87-1.41,5.27
		c0,2.55,0.47,4.37,1.41,5.47S362.46,217.43,363.84,217.43z"/>
	<path class="st0" d="M373.86,214.64l2.62-0.54c0.58,2.22,2.42,3.33,5.51,3.33c1.14,0,2.1-0.25,2.89-0.77
		c0.79-0.51,1.19-1.23,1.19-2.16c0-1.38-1.01-2.26-3.02-2.63l-3.71-0.7c-1.45-0.28-2.61-0.83-3.47-1.64s-1.29-1.89-1.29-3.23
		c0-1.48,0.59-2.71,1.76-3.71c1.17-0.99,2.75-1.49,4.74-1.49c3.82,0,6.18,1.49,7.08,4.48l-2.51,0.54c-0.72-1.84-2.2-2.75-4.45-2.75
		c-1.12,0-2.03,0.23-2.75,0.69s-1.07,1.1-1.07,1.92c0,1.3,0.91,2.12,2.74,2.46l3.43,0.62c3.59,0.65,5.39,2.39,5.39,5.22
		c0,1.62-0.67,2.93-2,3.92c-1.34,1-3.12,1.49-5.33,1.49C377.43,219.7,374.85,218.01,373.86,214.64z"/>
</g>
</svg>
